<svg width="71" height="104" viewBox="0 0 71 104" fill="none" xmlns="http://www.w3.org/2000/svg">
<path d="M29.376 19.9697C24.5598 19.9697 20.6134 23.9158 20.6134 28.7323V58.8869C19.2564 55.9542 16.8225 52.785 13.7679 52.0072C9.612 50.8788 4.52193 54.2034 3.36297 58.0656C2.77212 60.2185 3.15699 62.6677 4.32152 65.6644C10.0122 79.348 17.0185 92.4839 25.5426 102.459C25.9501 102.928 26.5644 103.209 27.186 103.213H56.7601C57.2262 103.208 57.6897 103.049 58.061 102.767C61.2141 100.432 63.7554 96.452 65.865 91.7116C67.9745 86.9704 69.5898 81.4712 70.4175 76.1038C71.2451 70.7364 71.2424 65.7104 70.0751 61.2485C68.9485 56.9427 65.9111 53.3588 61.3812 52.8284C60.3133 52.8239 59.1858 52.917 58.2328 53.1365C57.6708 51.7931 56.883 50.6475 55.9056 49.9536C54.2677 48.7909 52.6008 48.425 51.251 48.4476C49.9546 48.4692 48.7728 48.9408 47.7258 49.6799C47.2542 48.9607 46.77 48.2127 46.1511 47.7627C44.5276 46.5837 42.7994 46.2567 41.4279 46.2567C40.2932 46.2567 39.1946 46.5711 38.142 47.0102V28.7317C38.049 22.8682 33.425 19.9582 29.3794 19.9691L29.376 19.9697ZM29.376 24.3504C31.8415 24.3504 33.7567 26.2666 33.7567 28.7311V51.7329C33.7423 52.7258 34.4894 53.678 35.457 53.9002C36.4246 54.1225 37.5124 53.5913 37.9324 52.6914C38.4167 51.685 40.2389 50.6379 41.4234 50.6379C41.9546 50.6379 42.9412 50.8592 43.5799 51.3227C44.2187 51.7861 44.7092 52.3291 44.7092 53.9237C44.7092 54.8976 45.4428 55.8227 46.3896 56.0495C47.3365 56.2763 48.408 55.783 48.8507 54.9157C49.7415 53.1341 50.2185 52.8459 51.3153 52.8278C51.6188 52.8224 52.6822 53.0248 53.3688 53.5126C54.0554 54.0005 54.5668 54.5606 54.5668 56.1136C54.5559 56.9665 55.1007 57.7995 55.8831 58.1401C56.6655 58.4807 57.6439 58.309 58.2628 57.7227C59.093 57.3134 59.9079 57.1887 60.9667 57.2095C63.5785 57.542 64.9346 59.1781 65.8615 62.4469C66.7975 65.7454 66.8318 70.4587 66.0666 75.4195C65.3014 80.3803 63.789 85.5888 61.8566 89.9325C60.0443 94.0061 57.8244 97.1871 55.8668 98.8315H28.2448C20.5556 89.7609 13.2133 75.8317 8.42665 64.0906C7.43015 61.5257 7.34071 60.0531 7.57109 59.23C8.38329 57.1114 10.6546 55.9152 12.6024 56.218C14.9314 57.0952 15.5087 58.6492 16.5044 60.428L20.8518 69.1562C21.2954 70.0235 22.366 70.5167 23.3129 70.29C24.2598 70.0632 24.9906 69.1381 24.9933 68.1642V28.7328C24.9933 26.2673 26.9095 24.3521 29.374 24.3521L29.376 24.3504Z" fill="white"/>
<path d="M12.9457 0.255177C12.3693 0.260598 11.7802 0.472004 11.371 0.905659L1.5135 10.7613C1.03558 11.2004 0.920837 11.7506 0.897339 12.3017C0.916311 12.9016 1.05815 13.3795 1.5135 13.8421L11.371 23.6977C12.176 24.5822 13.6603 24.5488 14.4861 23.732C15.3119 22.9153 15.3191 21.4274 14.4861 20.6178L8.359 14.4925H50.3923L44.2651 20.6178C43.4321 21.4273 43.4394 22.9153 44.2651 23.732C45.0909 24.5487 46.5798 24.5388 47.3803 23.6977L57.2378 13.8421C57.6931 13.3795 57.8358 12.9016 57.8539 12.3017C57.8313 11.7506 57.7157 11.2004 57.2378 10.7613L47.3803 0.905659C46.5626 0.0383498 45.0909 0.0546095 44.2651 0.871328C43.4394 1.68803 43.4321 3.17601 44.2651 3.98554L50.3923 10.1108H8.359L14.4861 3.98554C15.3191 3.17606 15.3119 1.68808 14.4861 0.871328C14.0732 0.462976 13.5221 0.249754 12.9457 0.255166L12.9457 0.255177Z" fill="white"/>
</svg>
